<?xml version="1.0" ?>
<!-- Uploaded to: SVG Repo, www.svgrepo.com, Generator: SVG Repo Mixer Tools -->
<svg width="800px" height="800px" viewBox="0 0 48 48" id="svg5" version="1.1" xml:space="preserve" xmlns="http://www.w3.org/2000/svg" xmlns:svg="http://www.w3.org/2000/svg">
<defs id="defs2"/>
<g id="layer1" transform="translate(-242.00002,-305)">
<path d="m 250.00242,318.49901 h 32.00002 v 24 h -32.00002 z" id="rect13527" style="fill:#e7e7e7;fill-opacity:1;fill-rule:evenodd;stroke:none;stroke-width:2;stroke-linecap:round;stroke-linejoin:round;stroke-miterlimit:4.1"/>
<path d="m 250.00242,318.49901 v 23.9082 a 18.46896,18.675299 0 0 0 0.16797,0.0918 h 17.58594 a 18.46896,18.675299 0 0 0 9.67578,-16.36914 18.46896,18.675299 0 0 0 -1.61914,-7.63086 z" id="path30580" style="fill:#fafafa;fill-opacity:1;fill-rule:evenodd;stroke:none;stroke-width:2.00001;stroke-linecap:round;stroke-linejoin:round;stroke-miterlimit:4.1;stroke-opacity:1"/>
<path d="m 267.98484,329.49901 a 1,1 0 0 0 -1,1 1,1 0 0 0 1,1 h 5.01758 a 1,1 0 0 0 1,-1 1,1 0 0 0 -1,-1 z" id="path29022" style="color:#000000;fill:#808b9b;fill-opacity:1;fill-rule:evenodd;stroke-linecap:round;stroke-linejoin:round;stroke-miterlimit:4.1"/>
<path d="m 267.93992,332.49901 a 1,1 0 0 0 -1,1 1,1 0 0 0 1,1 h 8.0625 a 1,1 0 0 0 1,-1 1,1 0 0 0 -1,-1 z" id="path29028" style="color:#000000;fill:#808b9b;fill-opacity:1;fill-rule:evenodd;stroke-linecap:round;stroke-linejoin:round;stroke-miterlimit:4.1"/>
<path d="m 268.02781,335.49901 a 1.000005,1.000005 0 0 0 -1,1 1.000005,1.000005 0 0 0 1,1 h 9.97461 a 1.000005,1.000005 0 0 0 1,-1 1.000005,1.000005 0 0 0 -1,-1 z" id="path29034" style="color:#000000;fill:#808b9b;fill-opacity:1;fill-rule:evenodd;stroke-linecap:round;stroke-linejoin:round;stroke-miterlimit:4.1;-inkscape-stroke:none"/>
<path d="m 264.00242,333.49902 c 0,2.76141 -2.23857,4.99999 -4.99998,4.99999 -2.76143,0 -5,-2.23858 -5,-4.99999 0,-2.76143 2.23857,-5.00001 5,-5.00001 2.76141,0 4.99998,2.23858 4.99998,5.00001 z" id="path13557" style="fill:#e7e7e7;fill-opacity:1;fill-rule:evenodd;stroke:none;stroke-width:2;stroke-linecap:round;stroke-linejoin:round;stroke-miterlimit:4.1;stroke-opacity:1"/>
<path d="m 259.00242,328.49901 v 5 l 4.01367,2.98047 c 0.61881,-0.83227 0.98633,-1.86366 0.98633,-2.98047 0,-2.76143 -2.23859,-5 -5,-5 z" id="path13569" style="fill:#ff5576;fill-opacity:1;fill-rule:evenodd;stroke:none;stroke-width:2;stroke-linecap:round;stroke-linejoin:round;stroke-miterlimit:4.1"/>
<path d="m 247.0024,342.49901 h 38.00001 v 1 c 0,3.86599 -3.13401,5 -7,5 H 254.0024 c -3.86599,0 -7,-1.13401 -7,-5 z" id="rect12797" style="fill:#e7e7e7;fill-opacity:1;fill-rule:evenodd;stroke:none;stroke-width:2;stroke-linecap:round;stroke-linejoin:round;stroke-miterlimit:4.1"/>
<path d="m 247.00243,342.49901 -1e-5,1 c 0,3.86599 3.13402,5 7,5.00001 l 10.83203,-10e-6 a 13.012215,32.070339 75 0 0 13.97265,-5.99999 z" id="path30546" style="fill:#fafafa;fill-opacity:1;fill-rule:evenodd;stroke:none;stroke-width:2;stroke-linecap:round;stroke-linejoin:round;stroke-miterlimit:4.1;stroke-opacity:1"/>
<path d="m 274.00241,317.49901 c 0,4.41826 -3.58171,7.99998 -7.99998,7.99998 -4.41828,0 -8,-3.58172 -8,-7.99998 0,-4.41827 3.58172,-8 8,-8 4.41827,0 7.99998,3.58173 7.99998,8 z" id="path13529" style="fill:#f2a50c;fill-opacity:1;fill-rule:evenodd;stroke:none;stroke-width:2;stroke-linecap:round;stroke-linejoin:round;stroke-miterlimit:4.1;stroke-opacity:1"/>
<path d="m 266.00242,309.49901 c -4.41828,0 -8,3.58173 -8,8 0,2.42767 1.08369,4.6012 2.79102,6.06836 0.0163,8e-5 0.0324,0.002 0.0488,0.002 5.72059,0 10.35743,-4.63685 10.35743,-10.35742 0,-0.66506 -0.0638,-1.31512 -0.1836,-1.94531 -1.37191,-1.10522 -3.11481,-1.76758 -5.01367,-1.76758 z" id="path30332" style="fill:#f7c63d;fill-opacity:1;fill-rule:evenodd;stroke:none;stroke-width:2;stroke-linecap:round;stroke-linejoin:round;stroke-miterlimit:4.1;stroke-opacity:1"/>
<path d="m 266.00242,311.15722 a 1.005548,0.99447354 0 0 0 -1.00586,0.99413 v 0.88672 c -1.10669,0.39534 -1.92187,1.41988 -1.92187,2.63867 0,1.56661 1.34574,2.81641 2.92773,2.81641 0.54071,0 0.91602,0.38156 0.91602,0.82617 -10e-6,0.44463 -0.37532,0.82617 -0.91602,0.82617 -0.5407,0 -0.91602,-0.38154 -0.91602,-0.82617 a 1.005548,0.99447354 0 0 0 -1.00586,-0.99414 1.005548,0.99447354 0 0 0 -1.00585,0.99414 c 0,1.21879 0.81518,2.24528 1.92187,2.64063 v 0.88672 a 1.005548,0.99447354 0 0 0 1.00586,0.99414 1.005548,0.99447354 0 0 0 1.00391,-0.99414 v -0.88477 c 1.10746,-0.39473 1.92187,-1.42292 1.92187,-2.64258 0,-1.5666 -1.3438,-2.81445 -2.92578,-2.81445 -0.54071,0 -0.91602,-0.38349 -0.91602,-0.82813 0,-0.44462 0.3753,-0.82421 0.91602,-0.82421 0.54071,0 0.91602,0.37959 0.91602,0.82421 a 1.005548,0.99447354 0 0 0 1.00585,0.99609 1.005548,0.99447354 0 0 0 1.00391,-0.99609 c 0,-1.21966 -0.81441,-2.24589 -1.92187,-2.64062 v -0.88477 a 1.005548,0.99447354 0 0 0 -1.00391,-0.99413 z" id="path28782" style="color:#000000;fill:#808b9b;fill-opacity:1;fill-rule:evenodd;stroke:none;stroke-width:0.999995;stroke-linecap:round;stroke-linejoin:round;stroke-miterlimit:4.1;stroke-opacity:1"/>
</g>
</svg>